<?xml version="1.0" encoding="utf-8"?>
<!-- Generator: Adobe Illustrator 19.2.0, SVG Export Plug-In . SVG Version: 6.00 Build 0)  -->
<svg version="1.1" id="Capa_1" xmlns="http://www.w3.org/2000/svg" xmlns:xlink="http://www.w3.org/1999/xlink" x="0px" y="0px"
	 viewBox="0 0 871.9 640.3" style="enable-background:new 0 0 871.9 640.3;" xml:space="preserve">
<style type="text/css">
	.st0{opacity:0.5;}
	.st1{fill:#00A8DE;}
	.st2{fill:#005EB8;}
	.st3{fill:#0085C9;}
	.st4{fill:#70C4E8;}
	.st5{fill:none;}
</style>
<g class="st0">
	<path class="st1" d="M857.1,182.4c9.9-10.2,7.8-24.2-4.7-31L625.3,26.9c-12.5-6.8-32.7-6.5-45,0.7L196.9,254
		c-12.3,7.2-31.8,19.9-43.4,28.2l-102,73c-11.6,8.3-9.5,16.9,4.5,19.1l533.5,84.8c14.1,2.2,33.1-4.8,42.3-15.7l168-199.3
		c9.2-10.9,24.8-28.2,34.7-38.4L857.1,182.4z"/>
	<path class="st2" d="M401.7,526.3c-4.4,0.5-10.4-0.9-13.4-3c-3-2.1-6.8-7.2-8.4-11.3l-31.4-78.2c-1.6-4.1,0.6-6.8,4.9-6.1l150,24.8
		c4.3,0.7,6.1,4.5,4,8.3l-28.3,50.8c-2.1,3.8-7.5,7.4-11.9,7.8L401.7,526.3z"/>
	<path class="st3" d="M374.5,526.9c-2.8-1-8.1-3.7-11.9-6L221,432.5c-3.7-2.3-6.3-7.8-5.7-12.2l0.9-6.4c0.6-4.4,4.7-7.4,9-6.7
		l105.1,17c4.3,0.7,9.2,4.6,10.9,8.7l35.3,88.3C378.2,525.4,377.3,527.9,374.5,526.9"/>
	<path class="st1" d="M334.4,623.3c-0.8,4.3-4.3,5.7-7.9,3.1L173,513.2c-3.5-2.6-3.9-7.3-0.8-10.4l51.1-51.1
		c3.1-3.1,8.7-3.8,12.5-1.4l110.2,68.6c3.7,2.3,6.1,7.8,5.4,12.1L334.4,623.3z"/>
	<path class="st4" d="M587.2,465.5c4.3,0.7,10,4.2,12.6,7.8l50.8,69.8c2.6,3.6,1.3,7.6-2.9,9l-73.8,24.7c-4.2,1.4-10.7,0.7-14.4-1.6
		l-72.2-44.3c-3.8-2.3-5.2-7.4-3.2-11.3l29.2-58.3c2-3.9,7.1-6.6,11.5-5.9L587.2,465.5z"/>
	<path class="st2" d="M33.2,136.5c-4.2,1.3-4.3,3.8-0.3,5.5l191.1,80.3c4.1,1.7,10.5,1.3,14.3-0.9l83.6-48.9
		c3.8-2.2,5.1-7.2,2.9-10.9l-54.3-92.2c-2.2-3.8-7.5-5.8-11.7-4.5L33.2,136.5z"/>
	<path class="st3" d="M279.4,51.8c-3.8,2.2-5.2,7.1-3,10.9l53.7,94.8c2.2,3.8,7.1,5.2,10.9,2.9l83.6-48.9c3.8-2.2,5.1-7.2,2.9-10.9
		L373.1,8.3c-2.2-3.8-7.2-5.1-11-3L279.4,51.8z"/>
	<rect x="243.9" y="122.3" class="st5" width="540.8" height="382.4"/>
</g>
</svg>
