<?xml version="1.0" encoding="utf-8"?>
<!-- Generator: Adobe Illustrator 19.2.0, SVG Export Plug-In . SVG Version: 6.00 Build 0)  -->
<svg version="1.1" id="Capa_1" xmlns="http://www.w3.org/2000/svg" xmlns:xlink="http://www.w3.org/1999/xlink" x="0px" y="0px"
	 viewBox="0 0 330 93" style="enable-background:new 0 0 330 93;" xml:space="preserve">
<style type="text/css">
	.st0{clip-path:url(#SVGID_2_);fill:#2279B7;}
	.st1{fill:#2279B7;}
	.st2{fill:none;stroke:#2279B7;stroke-miterlimit:10;}
	.st3{fill:#004976;}
</style>
<g>
	<g>
		<g>
			<defs>
				<rect id="SVGID_1_" x="2.4" y="2.1" width="81.5" height="90.2"/>
			</defs>
			<clipPath id="SVGID_2_">
				<use xlink:href="#SVGID_1_"  style="overflow:visible;"/>
			</clipPath>
			<path class="st0" d="M12.9,81.4c-0.1-0.4-0.6-1.4-0.6-2.1c-0.3-1.5,0.6-2.5,1.3-2.8c0.8-0.3,1.1,0.1,1.5,1.1
				c0.4,1.5,0.4,3.5,0.3,6.3c-0.1,3.8-2.1,8.4-6.9,8.4c-4.1-0.1-5.9-2.8-6.2-6.9c-0.1-2,0-3.8,0.8-6.6c0.4-1.4,0.8-2,2.1-2.2
				c1-0.1,1,0.8,0.7,2.1c-0.6,2.8-0.7,4.2-0.6,7.3c0.1,3.4,1.7,4.6,3.4,4.6c2.5,0,3.7-2.1,4.1-5.1C13.4,83.3,13.1,82.1,12.9,81.4z
				 M66.8,84.7c1,0,1.3,1.1,1,1.8c-0.3,0.7-1.1,1.5-2.4,1.7C65.1,87.5,64.9,84.7,66.8,84.7z M48.5,86.3c0-0.8-0.4-1.4-1-1.4
				c-0.4,0-1.4,0.4-1.4,2c0,1.1,0.4,1.7,0.6,2C48.1,88.4,48.5,87.3,48.5,86.3z M33.9,76.7c0-0.7-0.7-1.3-1.4-1.3
				c-0.8,0-1.7,1-1.7,2.1c0,0.7,0.6,1.4,1.4,1.4C33.3,79,34,77.8,33.9,76.7z M41.5,79.5c-0.1-1.3-0.4-2-1.1-1.8c-1,0-1.4,3-1.1,6
				c0.1,2,0.4,2.4,0.7,2.2C40.5,86,41.7,82.3,41.5,79.5z M72.5,84.4c-0.6,2.4-2.4,5.9-4.9,5.9c-0.6,0-1.7-0.3-1.7-0.8
				c0-0.7,4.1-0.7,4.1-3.9c0-1.1-1.1-2.8-2.7-2.8c-2.1,0-4.2,2.2-4.2,5.5c0,2.8,1.8,3.8,3.5,3.8c3.1,0,4.9-2.5,5.9-4.6
				c0.4,1.4,0.7,4.6,2,4.6c0.4,0,0.8-0.3,1.4-1.5c1.4-3.1,2.8-6.7,4.6-6.7c0.7,0,0.3,1.3,2,1.3c0.8,0,1.4-0.7,1.4-1.4
				c0-1.1-1-2-2.5-2c-4.4,0-5.3,6.6-6,6.6c-1.1,0-0.8-5.3-1.7-5.3C72.9,83,72.7,84,72.5,84.4z M35.1,90.1c0.7,0,2-0.3,2.8-1.7
				c-0.6-1.3-1-3.7-1-4.5c-0.3-4.5,1.4-8.9,3.4-8.9c1.4-0.1,2.5,1.3,2.7,3.4c0.3,5.6-1.5,8-2.5,10c0.1,0.8,1.5,2.1,2.8,2.1
				c0.4,0,1-0.3,1.1-0.4c-0.1-0.3-0.1-0.7-0.1-1.4c0-3.2,2.1-6,3.9-6c1.4,0,2.2,2,2.2,3.2c0,1.5-1.3,2.7-3.1,3.9
				c0.3,0.3,1,0.6,1.4,0.6c2.7,0,4.1-3.2,5.1-6.2c0.1-0.6,0.6-1.4,1.1-1.4c1.1,0,1.5,7.4,3.5,7.4c0.8,0,1.4-1.7,1.4-3
				c0-1-0.3-1-0.3-2.4c0-1.5,0.8-2.8,1.8-2.8c0.7,0,0.8,0.7,0.8,1.4c0,3-2.1,8.6-5.3,8.6c-2.4,0-2.2-4.1-3.1-4.1
				c-1,0-2.2,4.2-6.9,4.2c-0.7,0-1.5-0.4-2.2-1.1c-1.1,0.7-2.1,1.1-3.1,1.1c-1.7,0-2.5-1.8-3.2-1.8c-0.8,0-1.8,1.8-4.6,1.8
				c-2.2,0-2.7-3-3.4-3c-0.7,0-1.8,3-3,3c-2,0-2.4-5.2-4.1-5.2c-1.4,0-5.6,5.3-6.7,5.2c-0.4,0-0.7-0.4-0.6-0.8
				c0-0.7,0.6-2.4,0.8-3.2c0.4-1.4,0.7-3,1-3.5c0.1-0.6,0.7-0.8,1.1-0.8c0.1,0,0.3,0.4,0.3,0.7c0.3,1.1,0.6,2.4,1,2.4
				c0.7,0,2.8-4.2,4.1-4.2c1.5,0,1.7,6.6,3.8,6.6c0.7,0,1.3-0.8,1.7-1.8c0-1.7,0.6-4.2,2-4.2c1,0,1.4,2.2,0.7,4.1
				C32.6,89.5,34.2,90.1,35.1,90.1"/>
		</g>
	</g>
	<path class="st1" d="M67.7,16.7c-0.3,0-0.8,0-1.1-0.6c-0.3-0.4-0.1-1.1-0.6-1.5c0.4,0.1,0.8,0.1,1.3,0.1c1.1,0,2.2-0.7,3-0.7
		c0.6,0,0.7,0.3,0.7,0.7C71,15.7,68.7,16.7,67.7,16.7z M68.3,19.5c2.5,0,4.9-2.1,4.9-3.9c0-0.8-0.4-1.5-1.4-1.7
		c0.1,0.3,0.3,0.4,0.3,0.8c0,1.4-2.1,2.8-4.4,2.8c-0.8,0-1.1,0.6-1.1,0.8C66.6,19.2,67.3,19.5,68.3,19.5z M68,20.5
		c0.3,2.4,3.9,5.5,4.9,5.5c0.7,0,0.8-3.1,0.8-5.5c0-1.4,0.1-2.4-0.7-2.7C72,20.2,69,20.6,68,20.5"/>
	<path class="st1" d="M12.2,36.1c0.8,0,0.7-5.2,2-5.2c0.3,0,0.4,0.3,0.4,0.7c0,1.1-0.6,2.8-0.6,3.8c0,0.4,0.1,0.6,0.3,0.6
		c0.6,0,1.7-5.6,2.7-5.6c0.3,0,0.4,0.3,0.4,0.7c0,1.1-1.5,4.6-1.5,5.6c0,0.1,0,0.3,0.1,0.3c0.6,0,1.8-2.7,2.2-4.1
		c0.3-0.7,0.6-1.1,0.8-1.1s0.4,0.3,0.4,0.8c0,1.4-1.3,4.5-2.4,6.6c-0.8,1.7-2.1,3.9-2.1,5.3c0,0.7,0.1,1.4,1.1,2.2
		c-1.5-0.1-2.2-0.3-2.8-1.5c-2.7,5.3,4.9,4.8,2.2,9.4c-0.4-0.8-4.2-1.7-4.2-6.6c0-4.2,3.7-6.7,3.7-8.4c0-0.3-0.1-0.7-0.4-1
		c-0.8-0.7-0.8-1.3-1.5-1.3c-0.4,0-1,1.1-0.4,2.1c0.1,0.3,0.4,0.6,0.4,0.8c0,0.7-1.1,2.5-1.8,2.5c-0.7,0-1.4-2-1.4-4.9
		c0-2.7,0.6-5.5,1.4-5.5c0.3,0,0.3,0.1,0.3,0.3c0,0.3-0.1,1-0.1,2.1C11.7,36.1,12,36.1,12.2,36.1"/>
	<path class="st1" d="M18.6,43.4c1,0,2-0.7,2-2.5v-2.5c0-1,0.1-2.1,0.7-2.8c-0.1,0.3-0.1,0.7-0.1,1c0,2.1,1.1,3.7,1.1,5.6
		c0,0.7-0.3,1.1-0.8,1.1c-0.6,0-0.6-0.6-0.7-0.6s-0.3,0.3-0.3,0.7c0,0.6,0.4,1.4,1.4,1.4c0.8,0,1.5-0.8,1.5-1.7c0-2.2-1.7-4.8-1.7-7
		c0-1,0.3-1.7,0.6-2.2c0,4.9,4.2,8.6,4.2,10.5c0,0.4-0.3,0.8-0.8,0.8c-0.6,0-0.8-0.4-0.8-0.8c0-0.1,0-0.3-0.1-0.3
		c-0.1,0-0.6,0.6-0.6,1.1c0,0.8,0.7,1.8,2,1.8c1.4,0,2.2-1.1,2.2-2.2c0-2.7-5.1-6.6-5.1-10.8c0-0.7,0.1-1.8,0.7-2.8
		c-3.2,2.1-4.4,4.9-4.4,7.3c0,2.1-0.1,3.2-1.1,3.2c-0.6,0-0.7-0.6-1-0.6c-0.1,0-0.3,0.4-0.3,0.6C17.2,42.8,17.9,43.4,18.6,43.4"/>
	<path class="st1" d="M56.1,15.4c0.3-0.3,1.7,0.1,3.5-0.7c0.3-0.1,0.4-0.1,0.7-0.1c0.8,0,0.7,1,1.4,1c0.6,0,1.4-0.6,1.8-0.6
		c0.7,0,1.8,2.4,1.8,3.4c0,1.3-2,2-4.2,2c-3.2,0-5.3-2.8-5.3-4.8C55.9,15.6,56.1,15.6,56.1,15.4z M61.6,18.7c1.1,0,2-0.6,2-0.8
		c0-0.1-0.1-0.1-0.4-0.1c-0.3,0-1,0-2.2-0.3c-1-0.1-1.8-0.6-2.1-0.6c-0.1,0-0.1,0-0.1,0.1C58.5,17.7,59.7,18.7,61.6,18.7"/>
	<path class="st1" d="M19,52.8c-0.8,0.1-2.1,1.5-2.1,3.5c0,2.4,2.7,6.2,6.9,6.2c3.7,0,4.5-2.5,4.5-4.2c0-3.8-2.2-6.3-5.3-6.3
		c-1.7,0-3.1,1.1-3.1,3c0,1.7,1.3,4.1,4.2,4.1c1.4,0,2.2-1,2.2-2.1c0-1.1-1-2.7-2.5-2.7c-0.4,0-0.7,0.3-0.7,0.7
		c0,0.6,0.8,1.1,1.8,1.1c0.3,0,0.4,0,0.6-0.1c0,0.1,0.1,0.1,0.1,0.3c0,0.6-0.6,1-1.4,1c-1.3,0-2.5-1-2.5-2.4c0-0.8,0.7-1.5,1.8-1.5
		c2.2,0,3.5,2,3.5,3.9c0,1.8-1,2.8-3,2.8C20.1,60,18.1,56.3,19,52.8"/>
	<path class="st1" d="M47.4,67.3c1.1,0,1.1-0.1,1.5-0.1s0.4,0.3,0.4,0.4c0,0.6-1.3,1.3-3.4,1.3c-1.3,0-2-0.7-2.2-1.4
		c-1.3,0.8-3.1,1.5-4.9,1.5c-5.1,0-6.3-2.2-8-3c-1.3-0.6-3.1,0.6-5.6-2.4c0.3,0.1,0.8,0.1,1.1,0.1c2.2,0,3.5-1.1,3.5-3
		c0-0.3,0-0.4,0-0.7c0.7,0.3,2.2,1.4,2.7,3.5c0,0.3,1.1,0.4,1.7,0.4c0.8,0,2-0.4,2.2-1.8c3-0.3,5.1-2,5.5-4.2
		c1.1,0.3,2.2,1.3,2.5,1.8c0.4-0.1,1-0.3,1.5-0.3c0.8,0,1.7,0.1,2.8,0.4c0-0.3,0.1-0.7,0.6-0.7c0.7,0,0.6,0.8,0.8,1.3
		c0.1,0.3,0.7,0.4,0.7,0.8s-0.4,0.7-0.7,0.7c-0.1,0-0.3,0-0.3,0c-0.6,0.1-0.6,3.8-2.7,3.8c-1.5,0-3-1.3-3.5-2.8
		c-0.1-0.4-0.6-0.7-0.8-0.7c-0.4,0-0.6,0.1-1.1,0.6c-1.4,1.4-3.5,2.7-6.3,2.7c-0.8,0-1.5-0.1-1.7-0.1c-0.1,0-0.1,0-0.1,0
		c0,0.1,0.8,0.8,2.7,0.8c4.4,0,5.5-2.4,6.2-2.4c0.1,0,0.4,0,0.6,0.4C43.7,66.7,46,67.3,47.4,67.3z M45.4,62.4c0,0.6,0.4,1,1,1
		s1-0.4,1-1c0-0.6-0.4-1-1-1C46,61.4,45.4,61.8,45.4,62.4"/>
	<path class="st1" d="M65.1,50c-0.3,0-0.7,0.3-0.7,1c0,0.7,0.6,1.3,0.8,1.4c0.1,0.1,0.4,0.1,0.7,0.1c0.7,0,1.3-0.1,1.3-0.8
		C67.3,50.9,66.2,50,65.1,50z M62.4,51.6c-0.6,0-3.4,3.8-5.2,3.8c-0.4,0-0.8-0.8-0.8-1.5c0-0.3,0.3-0.6,1-0.7c4.2-1,3.4-4.2,7-4.2
		c2,0,4.2,1.4,4.2,4.5c0,3.2-4.6,7.3-5.3,7.3c-0.6,0-1.1-0.8-1.1-1.4c0-0.1,0.1-0.4,0.6-0.6c2.4-1,3.8-3.1,3.8-4.2
		c0-0.3-0.1-0.6-0.4-0.6c-0.4,0-2.2,4.1-4.2,4.1c-1.4,0-2.8-1.3-2.8-1.8c0-1,4.1-2.8,4.1-4.2C62.8,51.6,62.7,51.6,62.4,51.6"/>
	<path class="st1" d="M13.4,19c0,0-0.7,0.6-1.5,0.6c-1.1,0-2-0.8-2-2c0-0.7,0.4-1.5,1.3-2c0,0.1,0,0.3,0,0.4
		C11.1,17.4,11.8,18.5,13.4,19z M18.6,23.7c-0.6,0.7-1.1,1.7-1.1,2.8c0,1.4,0.8,2.4,2.1,2.4c1.3,0,1.8-1,1.8-2.1
		C21.4,25.3,19.8,24.2,18.6,23.7z M10.4,24.7c0,0.1-0.1,0.1-0.1,0.3c0,0.3,0.3,0.4,0.4,0.4c0.1,0,0.3,0,0.4,0c0.6,0,1.3,0.4,2.2,0.4
		c0.6,0,1.3-0.1,2.1-0.6c1.8-0.8,2.5-3.1,2.5-3.5c0-0.4-0.4-0.4-0.7-0.8c-0.3-0.4-0.1-0.8-0.4-1c-0.1-0.1-0.4-0.1-1-0.1
		c-0.1,0-0.3,0-0.6,0c-0.8,0-1.8,0.1-2.8,0.8C10.4,21.9,10.7,24.2,10.4,24.7z M16.2,21.6c0.1,0.3,0.7,0.6,0.7,0.7
		c0,0.3-0.1,0.8-0.6,0.8c-0.8,0-1.5-1.3-1.5-2.1c0-0.4,0.3-0.6,0.7-0.6c0.1,0,0.3,0,0.4,0.1C15.9,20.8,15.9,21.2,16.2,21.6z
		 M13.9,24.7c-0.8,0-1.7-1-1.7-2c0-0.6,0.4-1.1,0.7-1.1c0.1,0,0.1,0.1,0.1,0.3c0.1,1.3,1,2,1.7,2.2c0.1,0,0.1,0.1,0.1,0.1
		C14.9,24.4,14.3,24.7,13.9,24.7z M16,18.4c0.1-0.4,0.3-0.8,0.3-1.4c0-1.1-0.6-3-2.2-3c-1,0-1.7,0.7-1.7,1.7
		C12.4,17.7,14.3,18.4,16,18.4z M9.6,28.4c0,1.8,0.6,2.8,1.5,2.8c0.8,0,1.8-0.6,3.1-1.7c-1,0.3-1.7,0.4-2.4,0.4
		C11.1,29.8,10.4,29.5,9.6,28.4z M10.6,26.1c0,0.1,0,0.3,0,0.4c0,1.1,0.6,1.8,1.4,1.8c0.6,0,1.4-0.4,2-1.1c-0.3,0-0.6,0.1-0.8,0.1
		C12.1,27.3,11.1,27,10.6,26.1z M16.6,25.8C16,26,14.8,26.7,14.8,28c0,0.8,0.7,1.4,1.5,1.4c0.4,0,0.7-0.1,1-0.3
		c-0.7-0.7-1-1.4-1-2.1C16.5,26.4,16.5,26.1,16.6,25.8z M17.4,19c0,0.6,0.4,1,1,1s1-0.4,1-1c0-0.6-0.4-1-1-1S17.4,18.4,17.4,19z
		 M18.7,21.2c0,0.6,0.4,1,1,1s1-0.4,1-1s-0.4-1-1-1C19.3,20.2,18.7,20.6,18.7,21.2"/>
	<path class="st1" d="M57.5,33.4c0-0.6,0.4-1,1-1s1,0.4,1,1s-0.4,1-1,1S57.5,34,57.5,33.4z M48.8,25.7c0,0.6,0.4,1,1,1
		c0.6,0,1-0.4,1-1c0-0.6-0.4-1-1-1C49.2,24.7,48.8,25.3,48.8,25.7z M47.9,29.2c0,0.7,0.7,1.4,1.4,1.4s1.4-0.7,1.4-1.4
		c0-0.7-0.7-1.4-1.4-1.4C48.5,27.8,47.9,28.5,47.9,29.2z M51,27.7c0,0.8,0.7,1.5,1.5,1.5s1.5-0.7,1.5-1.5c0-0.8-0.7-1.5-1.5-1.5
		S51,26.8,51,27.7z M51.2,24.4c0,0.6,0.4,1,1,1c0.6,0,1-0.4,1-1c0-0.6-0.4-1-1-1C51.6,23.5,51.2,23.9,51.2,24.4z M55.7,22.1
		c0,0.6,0.4,1,1,1c0.6,0,1-0.4,1-1c0-0.6-0.4-1-1-1C56.1,21.1,55.7,21.5,55.7,22.1z M53.8,25.1c0,0.8,0.7,1.5,1.5,1.5
		s1.5-0.7,1.5-1.5c0-0.8-0.7-1.5-1.5-1.5S53.8,24.3,53.8,25.1z M51.2,30.9c0,0.6,0.4,1,1,1c0.6,0,1-0.4,1-1c0-0.6-0.4-1-1-1
		C51.7,29.9,51.2,30.3,51.2,30.9z M54.5,28.9c0,0.6,0.4,1,1,1c0.6,0,1-0.4,1-1c0-0.6-0.4-1-1-1C55,28,54.5,28.4,54.5,28.9z
		 M53.5,32.5c0,1,0.7,1.7,1.7,1.7s1.7-0.7,1.7-1.7c0-1-0.7-1.7-1.7-1.7C54.4,30.8,53.5,31.5,53.5,32.5z M57.2,30.3
		c0,0.7,0.6,1.1,1.1,1.1c0.7,0,1.1-0.6,1.1-1.1c0-0.7-0.6-1.1-1.1-1.1C57.6,29.2,57.2,29.6,57.2,30.3z M57.1,27.3c0,0.6,0.4,1,1,1
		s1-0.4,1-1c0-0.6-0.4-1-1-1C57.5,26.1,57.1,26.7,57.1,27.3"/>
	<path class="st1" d="M59.6,59.7c-0.7,0.6-2.1,1.5-4.6,1.5c-1.4,0-2-0.4-2.1-0.4c-0.3,0-0.6,0.3-0.8,0.6c-0.6,0.7-1.4,2-1.4,3.4
		c0,1,0.7,2,2.2,2c4.6,0,8.1-3,8.1-5.2C61,60.3,60.2,59.7,59.6,59.7z M58.3,59.4c0.1-0.1,0.3-0.4,0.3-0.7v-0.6
		c0-0.7-1.1-1.1-2.5-1.1c-1.8,0-2.8,0.8-2.8,1.1v1.1c0,0.4,1.1,1,2.4,1C56.6,60.3,57.6,60,58.3,59.4z M58,62c0.1,0,0.3,0.1,0.3,0.6
		c0,0.6-0.3,1.3-1.1,1.8c-0.6,0.4-1.4,0.7-2.7,0.8c0.1-0.6,0.3-1.3,0.3-1.8c0-0.1,0-0.3,0-0.6h0.3C57.1,62.7,57.9,62,58,62"/>
	<path class="st1" d="M48.6,31.6c0.3,2.1,3.1,1,3.1,3.7c0,0.4-0.1,1-0.1,1.4c0,0.6,0,1,0.4,1s0.6-0.3,0.6-0.7s-0.1-0.8-0.1-1.1
		c0-0.8,0.6-1.1,1-1.1c1,0,1.7,1,3.1,1c-0.3,1.5-3.5,1.1-3.5,3c0,0.8,0.8,1.1,1.4,1.1c0.6,0,0.7-0.1,0.7-0.6c0-0.3,0-0.6,0-0.7
		s0.1-0.1,0.1-0.1c0.6,0,3.2,2,3.2,2.7c0,0.6-2.8,1.1-3.7,1.1c-0.3,0-0.3-0.1-0.3-0.3s0.4-0.7,0.4-1c0-0.3-0.4-0.4-1.4-0.4
		c-0.4,0-0.8,0-0.8,0.4c0,0.7,1.1,1.5,1.1,2.1c0,0.6-0.3,0.8-1.1,0.8c-0.7,0-1.7-0.6-1.7-1.4c0-0.7,0.7-1.4,0.7-1.8
		c0-0.1-0.1-0.3-0.4-0.3c-1,0-1.1,2.4-4.4,2.7c0.6-0.4,1-1,1-2.1c0-0.6-0.1-1-0.1-1.5c0-0.7,0.3-1.1,0.8-1.1c1,0,1.4,1.3,2,1.3
		c0.3,0,0.7-0.3,0.7-0.7c0-1.8-3.7-1.5-3.7-4.2C47.6,33.7,47.9,32.9,48.6,31.6z M60.4,38.9c0,0.6,0.1,1.4,0.8,1.4c0.6,0,1-0.8,1-1.7
		c0-1-0.1-1.8-0.1-2.1c0-0.1,0.1-0.3,0.1-0.3c0.4,0,0.7,1,1.1,1s1.1-0.8,1.4-0.8c0.1,0,0.1,0.1,0.1,0.1c0,0.4-0.6,1.1-0.6,1.5
		c0,0.3,1.4,0.3,1.4,0.6c0,0.4-1.5,0.4-2.2,0.7c-0.7,0.3-1.1,0.7-1.1,1.1c0,0.6,0.6,0.6,1.1,0.6c1.7,0,2.8-0.8,3.2-0.8
		c0.1,0,0.1,0,0.1,0.1c0,0.3-0.8,1.1-0.8,1.4c0,0.4,1.5,1,1.5,1.1c0,0.1-0.1,0.1-0.3,0.1c-0.3,0-0.7-0.1-1-0.1c-0.1,0-0.4,0-0.4,0.1
		c-0.1,0.1,0,1.5-0.3,1.5c-0.3,0-1.1-3-3.1-3c-0.3,0-0.4,0.3-0.4,0.6c0,1,1,2.1,1.8,2.7c0.4,0.3,1.1,0.6,1.1,0.7
		c0,0.3-1.5,0-1.5,0.6c0,0.4,0.1,1.1,0.1,1.5c0,0.1,0,0.3-0.1,0.3c-0.3,0-1-1.4-1.4-1.4c-0.3,0-1,0.8-1.3,0.8
		c-0.1,0-0.1-0.1-0.1-0.1c0-0.6,1-1.8,1-3.1c0-0.6-0.1-1.8-0.8-1.8c-0.6,0-1.3,1-1.5,1.8c-0.1,0.6,0,2.7-0.4,2.7s-0.3-1.4-0.7-1.4
		s-1.1,0.7-1.4,0.7c0,0-0.1,0-0.1-0.1c0-0.3,0.7-1.3,0.7-1.4c0-0.4-1.7-0.4-1.7-0.7c0-0.1,0.7-0.3,1.3-0.4c1.3-0.3,3.1-1.1,3.1-2.4
		c0-1.4-1.4-2.1-2.2-2.7c-0.4-0.3-1-0.6-1-0.7s0.6-0.1,0.8-0.1c0.4,0,0.7,0,0.7-0.3s0-0.7,0-1c0-0.3,0-0.4,0.1-0.4
		c0.4,0,0.8,1.3,1.1,1.3c0.4,0,1-1,1.3-1c0.1,0,0.1,0.1,0.1,0.3C61,36.9,60.4,37.9,60.4,38.9"/>
	<path class="st1" d="M49.3,45.8c1.1,0.1,1.4,0.6,1.4,0.8c0,0.6-0.6,0.7-1,0.7c-0.3,0-0.7-0.1-1.1-0.1c-0.6,0-1.1,0.1-1.5,0.7
		c0.3,0,0.8,0.3,0.8,0.7c0,1.4-3.9,0.3-3.9,3.9c0,2,2,4.1,5.1,4.1c1.5,0,2.7-0.6,2.7-1.1c0-0.4-0.8-0.1-0.8-0.6
		c0-0.1,0.3-0.6,0.3-0.7c0-0.1-0.1-0.3-0.3-0.3c-0.4,0-1.3,0.7-3,0.7c-1.4,0-2.7-0.7-2.7-1.8c0-0.3,0.1-0.3,0.3-0.3s0.3,0.1,0.6,0.1
		c0.1,0,0.1-0.1,0.1-0.4c0-0.3,0-1,0.4-1s1.4,1.7,4.8,1.7c1.1,0,3.4-0.3,4.2-1c0,2.7-2.1,6.3-6.6,6.3c-4.6,0-7.2-3.7-7.2-7.2
		c0-3.8,3.1-7.3,7.3-7.3c1.1,0,2,0.4,2,0.8C51,45.4,49.5,45,49.3,45.8z M56.9,47.1c0.1,0.3,0.3,0.6,0.3,0.8c0,0.7-0.4,1.4-0.4,2.1
		c0,0.8,0.6,1.5,1.5,1.5c1,0,1.7-0.8,1.7-1.8C60,48.3,58.9,47.2,56.9,47.1z M48.8,48.6c0.3,0.3,0.3,0.6,0.3,0.7
		c0,0.4-0.1,0.7-0.1,1.1c0,0.6,0.4,1.1,1.1,1.1s1.1-0.6,1.1-1.1C51.2,49.6,50.2,48.6,48.8,48.6z M52,44.4c2.7,0.6,4.1,2.4,4.1,4.4
		c0,1.3-0.8,2.4-2.2,2.4c-1.3,0-2.2-0.8-2.2-2.2c0-1,0.8-2.1,0.8-3.2C52.6,45.2,52.4,44.8,52,44.4z M53.3,47.8
		c0,0.3,0.3,0.6,0.6,0.6c0.4,0,0.7-0.3,0.7-0.7c0-0.6-0.4-1.3-1-1.3c-0.1,0-0.1,0.3-0.1,0.6C53.4,47.2,53.3,47.5,53.3,47.8"/>
	<path class="st1" d="M26,22.2c0.8,0,1.8-4.5,1.8-5.3c0-0.1-0.1-0.3-0.3-0.3c-0.7,0-1.8,4.4-1.8,5.3C25.7,22.1,25.7,22.2,26,22.2z
		 M32,23.6c0.6,0,1.3-2.4,1.3-3.9c0-0.3,0-0.7-0.1-0.7c-0.6,0-1.4,2.4-1.4,3.8C31.8,23.3,31.9,23.6,32,23.6z M28,21.4
		c0.3,0,0.6-0.3,1.3-1c0-0.3,0-0.6,0-1c0-0.6-0.1-1-0.6-1c-0.7,0-1.1,2-1.1,2.5C27.7,21.1,27.8,21.4,28,21.4z M31.3,20.4
		c0-0.4-0.1-0.6-0.1-0.6c-0.3,0-0.6,0.3-1,1c0,0.8,0.1,1.3,0.4,1.3C30.9,22.1,31.3,21.2,31.3,20.4z M33.3,17.4c1.7,0,2.4,1.4,2.4,3
		c0,0.7-0.1,1.7-0.6,1.7s-0.3-0.6-0.3-1.1c0-0.7-0.1-0.8-0.4-0.8c-0.4,0-0.7,1-0.7,2c0,0.6,0.1,1.3,0.6,1.3c0.3,0,0.4-0.1,0.6-0.3
		c-0.1,1.1-1,2.1-2.1,2.1c-2.2,0-3-2.5-3.2-4.1c-1.3,1.4-2.5,2.4-4.8,2.4c-2,0-3-1.5-3-3c0-0.4,0.1-1.5,0.7-1.5s0.1,2,1.3,2
		c0.3,0,0.8-0.3,1.1-1.1c0.1-0.6,0.3-1,0.3-1.4c0-0.7-0.1-1.1-0.7-1.1c-0.4,0-1,0.3-1.1,0.6c0.6-1.8,2-2.7,3.7-2.7c2,0,3,1.7,3,3.7
		c0,0.3,0,0.6-0.1,0.8C30.9,18.5,32,17.4,33.3,17.4"/>
	<path class="st1" d="M28.7,24.2c-1.1,0-1.1,1.3-1.1,3.9c-0.8-1.7-2.1-3.5-3.7-3.5c-1,0-1.4,0.7-1.4,2c0,0.3,0,0.6,0.1,0.8
		c0.1-0.4,0.6-0.6,1-0.6c1.1,0,2.4,0.8,3.2,2c-1-0.1-2-0.3-2.7-0.3c-0.6,0-1,0-1.3,0.3c-0.7,0.3-1.7,1.4-1.7,3c0,0.3,0,0.6,0.1,0.8
		c0.8-2,3.2-2.8,4.6-2.8c0.3,0,0.6,0,0.7,0c-0.7,0.7-1,2-1,2.7c0,0.4-0.1,0.4-0.4,0.4c0,0.8,0.7,2,0.7,2.7c0,0.3-0.1,0.4-0.3,0.4
		c0,1.1,1.1,1.8,1.1,2.5c0,0.1,0,0.3-0.1,0.4c0.1,0.4,1.3,1.3,1.4,1.5c0.1,0.4,0.4,0.6,0.6,0.6c0.4,0,1.1-0.6,1.1-1
		c0-0.1-0.1-0.3-0.3-0.4c-0.4-0.3-0.7-1.1-1-1.5c-0.1,0-0.4-0.1-0.4-0.4c-0.1-0.6-0.1-1.4-0.3-2.1c-0.3-0.1-0.4-0.1-0.4-0.8
		c0-0.3,0.1-1.5,0.1-2c-0.1,0-0.3-0.1-0.3-0.4c0-0.8,0.8-1.4,1-2.4c1.4,1,1.8,2.1,1.8,3.1c0,0.6-0.1,1-0.1,1.4
		c1-0.6,2.7-1.3,2.7-2.8c0-1-0.4-2-3.2-2.4c0.8-0.3,2-0.6,2.8-0.6c1.5,0,2.5,0.6,2.7,1.5c0.3-0.6,0.6-1.1,0.6-1.5c0-1.3-1-2-2.2-2
		c-1.5,0-2.8,0.8-4.4,1.8c0.7-1.4,1.1-2.1,1.8-2.1c0.1,0,0.3,0,0.4,0C30.4,25.1,29.2,24.2,28.7,24.2"/>
	<path class="st1" d="M70.4,42c1.3,0,2.2,1.5,2.2,3.5s-1,4.2-2.7,5.6c0-3.4-4.1-2.2-4.1-4.8c0-1,0.7-1.7,1.7-1.7
		c0.8,0,1.4,0.3,1.8,0.7c-0.4-0.4-0.7-1-0.7-1.5C68.7,42.8,69.4,42,70.4,42"/>
	<path class="st1" d="M48.3,18.4c0.7,0.6,1.3,0.8,2,0.8c0.3,0,0.6-0.1,0.7-0.1c0.3,0,0.4,0.1,0.4,0.3c0,0.3-0.3,0.7-0.6,1
		c0.3,0.1,0.6,0.1,1,0.1c1.4,0,3.1-0.8,3.1-3.1c0.3,0.4,0.4,1.3,0.4,1.5c0,2.7-2,3.8-3.8,3.8c-1.1,0-1.8-0.4-2-0.4
		c-0.4,0-0.4,1-0.7,1c-0.6-0.1-1.1-1.4-1.1-2.7C47.6,19.9,47.8,19.1,48.3,18.4z M52,16.6c-0.1-0.3-1-0.6-1.3-0.6
		c-1.1,0-1.8,0.7-2,1.4c-0.1-0.3-0.1-0.6-0.1-0.8c0-1.1,0.7-2.4,2.5-2.4c1.5,0,2.2,0.8,2.4,0.8c0.3,0,0.6-0.3,0.7-0.3
		c0.3,0,0.3,0.4,0.3,0.7c0,1-0.4,2.7-1.5,3.4c-0.1-0.4-0.6-0.8-1.3-1.1c-0.1-0.1-0.3-0.3-0.3-0.4C51.4,17.1,51.7,16.7,52,16.6"/>
	<path class="st1" d="M31.1,11.2c0,0.8,3.1,5.1,3.7,5.1c0.6,0,0.8-0.8,0.8-1.5c0-0.1,0-0.4-0.1-0.6c-0.4-0.6-3.7-3.1-4.4-3.1
		C31.1,11.1,31.1,11.1,31.1,11.2z M12.8,8.7c0,0.6-1.8,2.1-2.5,2.1c-0.3,0-0.3-0.3-0.3-0.6c0-0.6,0.3-1.1,0.6-1.4
		c0.3-0.3,1.1-0.4,1.7-0.4C12.4,8.4,12.8,8.4,12.8,8.7z M35.4,10.1c0-1.5-4.1-4.2-4.1-5.3c0-0.1,0-0.3,0.1-0.3
		C32.2,3.8,35,3.2,35,2.7c0-0.3-0.6-0.3-0.8-0.3c-2.2,0-5.6,0.8-5.6,1.7s3.1,3,3.1,3.9c0,0.3-0.1,0.4-0.4,0.4c-0.8,0-2.7-1-3.5-1
		c-0.4,0-0.6,0.3-0.6,0.7c0,1.1,1.4,3.5,1.4,4.1c0,0.1,0,0.1-0.1,0.1c-0.4,0-2.5-2.5-3.2-2.5c-0.3,0-0.3,0.4-0.3,1v0.8
		c0,0.6,0,1-0.3,1c-0.8-0.3-1.1-2.1-1.8-2.1s-0.7,3.2-1.4,3.2c-0.7,0-0.1-3.5-0.8-3.5c-0.7,0-1.7,2.4-2.2,2.4
		c-0.1,0-0.3-0.1-0.3-0.4c0-0.7,0.4-1.8,0.4-2.5c0-0.3-0.1-0.6-0.4-0.6c-0.7,0-2.4,1.3-3.1,1.3c-0.1,0-0.3,0-0.3-0.1
		c0-0.6,2.7-2.5,2.7-3.4s-3.7-0.3-3.7-1.3c0-0.8,2.7-1.5,2.7-2.4c0.3-0.8-3-1.1-4.1-1.1c-1.4,0-2.2,0.1-2.2,0.6
		c0,0.7,3.4,0.8,3.4,1.4S9.8,6,9.8,6.9c0,0.7,4.9,0,4.9,0.8s-4.2,4.5-4.2,5.8c0,0.3,0.1,0.4,0.4,0.4c1.3,0,4.6-2.4,5.6-2.4
		c0.3,0,0.3,0.4,0.3,0.7c0,0.7-0.3,1.7-0.3,2.4c0,0.6,0.1,1,0.7,1c1,0,1.8-1.5,2.4-1.5c0.8,0,0.3,4.6,1.5,4.6c1,0,1.4-4.9,2.1-4.9
		c0.7,0,1.1,1.4,1.8,1.4c0.7,0,0.4-2.5,1.1-2.5c0.8,0,3.4,3,4.5,3c0.3,0,0.4-0.3,0.4-0.6c0-1.3-1.8-4.4-1.8-5.2
		c0-0.3,0.1-0.3,0.3-0.3c1,0,3.8,1.4,5.2,1.4C35.1,10.7,35.4,10.4,35.4,10.1z M32.9,5.2c0,0.4,1.5,1.4,2.2,1.4
		c0.4,0,0.6-0.6,0.6-1.1c0-0.7-0.3-0.7-1-0.7C33.9,4.6,32.9,4.9,32.9,5.2z M27.1,2.7c0-0.1-0.7-0.3-1.8-0.3c-1.5,0-1.4,1.4-2.7,1.4
		c-1.3,0-1-1.4-2.7-1.4c-1,0-2,0.1-2,0.4s1.1,0.1,1.1,1s-2.5,1.1-2.5,1.7c0,0.1,0.1,0.3,0.4,0.3c0.6,0,1.4-0.3,2-0.3
		c0.3,0,0.7,0.1,0.7,0.4c0,0.6-1.4,1.7-1.4,2.2c0,0.1,0.1,0.1,0.3,0.1C19.1,8.3,20,7,20.7,7c1.3,0,0.4,2.8,1.1,2.8
		c0.7,0,0.4-2.8,1.5-2.8c0.8,0,1.5,2,2.1,2c0.1,0,0.3-0.1,0.3-0.3c0-0.6-0.7-1.5-0.7-2.2c0-0.4,0.3-0.6,0.7-0.6
		c0.6,0,1.4,0.3,1.8,0.3c0.1,0,0.3,0,0.3-0.3c0-0.6-2.2-1.3-2.2-2C25.9,2.9,27.1,2.9,27.1,2.7"/>
	<path class="st1" d="M71.1,6.6c0,2.2-1.5,3.9-4.5,4.4c0.3,0,0.6,0,1,0c3.4,0,4.6-1.5,4.6-2.8C72.1,7.4,71.7,6.9,71.1,6.6z
		 M66.9,9.1c0-1.8-4.2-2.2-4.2-2.7c0-0.3,2.4-0.8,3.5-0.8c-1.8-2.4-4.5-2.1-4.5-2.5c0-0.3,2-0.7,3.8-0.7c1.5,0,3,0.3,3,1.5
		c0,0.7-0.6,1.3-0.6,2.2c0,0.6,0.3,1,1,1s1-0.8,1-1.7c0-0.7,0-1.3,0-1.5c0-1,0.7-1.7,1.7-1.7c0.8,0,1,0.4,2.2,0.4
		c-0.7,0.4-1,1.1-1,1.4c0,1,0.7,1.8,0.7,3.9c0,3.9-3.7,5.3-8.2,5.3c-1.3,0-2.5-0.1-3.8-0.3c-0.1,0-0.3-0.1-0.3-0.1
		c0-0.3,1.8-0.6,1.8-2.1c0-0.6-0.1-1.3-0.1-1.4c0-0.1,0.1-0.1,0.1-0.1c0.4,0,1.1,1.4,2.5,1.4C65.9,10.4,66.9,10.2,66.9,9.1z
		 M70.8,3.6c0,0.3,0.3,0.6,0.6,0.6S72,3.9,72,3.6s-0.3-0.6-0.6-0.6C71.1,3.1,70.8,3.4,70.8,3.6"/>
	<path class="st1" d="M68.7,26.5c0-0.6-1.3-0.6-1.4-2c0-0.3-0.1-0.6-0.4-0.6c-0.4,0-0.1,1.4-0.6,1.4c-1.1,0-1.5-2.2-2-2.2
		c-0.1,0-0.3,0.1-0.3,0.4s0,0.4,0,0.7c0,0.3-0.1,0.6-0.4,0.6c-0.7,0-1.3-1.5-1.8-1.5c-0.1,0-0.3,0.1-0.3,0.1c0,0.3,0.6,0.8,0.6,1.1
		c0,0.6-1.5,0.3-1.5,0.7c0,0.3,0.3,0.3,0.6,0.3c0.6,0,1.4-0.3,1.8-0.3c0.3,0,0.6,0,0.6,0.4c0,0.3-0.8,0.8-0.8,1.1
		c0,0.1,0.1,0.3,0.3,0.3c0.7,0,1.8-1.1,2.7-1.1c0.1,0,0.6,0.1,0.6,0.3c0,0.3-0.8,0.8-0.8,1.4c0,0.1,0.1,0.3,0.3,0.3
		c0.4,0,1-1.1,1.8-1.1c0.3,0,0.8,0.1,1,0.1C68.6,26.8,68.7,26.7,68.7,26.5z M69.3,38.6c0.4-1.3,0.8-2.1,1.7-3.5
		c-0.8-0.4-3-1.3-3-2.8c0-1.7,2.1-3.1,2.5-3.1c0.1,0,0.3,0.1,0.3,0.6c0,0.8-0.4,2.4-0.4,3.1c0,0.7,0.4,1.4,0.8,1.4
		c0.4,0,1.5-1.5,1.5-3c0-2.7-2.2-3.4-3.1-3.4c-0.7,0-1.8,1.1-4.8,1.1c-5.3,0-6.6-5.3-6.6-7.6c0-0.1,0-0.1,0-0.1
		c0.1,0,0.7,0.7,2.4,0.7c0.8,0,1.7-0.3,3-0.3c3,0,4.4,2.1,6.2,4.6c1.1,0.7,3.8,1.8,3.8,4.9c0,2.8-3,4.4-3.7,7.3
		c1.1-0.1,1.8-2.1,3-2.1c0.6,0,0.8,0.4,0.8,1.3c0,1.1-0.6,2.7-1.8,3.8c0-0.1,0-0.3,0-0.4c0-0.7-0.3-1.7-1.1-1.7
		c-1.3,0-1.7,1.4-2.4,2.4c-0.7-2.5-1.7-4.8-3.4-6.2c-1.8-1.4-4.8-0.7-4.8-3.2c0-0.7,0.4-1.7,0.4-2.5c0-0.3,0-0.6-0.1-0.7
		c2.4,0.8,1.5,2.5,3,4.1c0.8,1,3.5,2,4.9,6.3c0-0.1,0-0.4,0-0.7c0-3.7-4.9-7.3-5.3-8.7c2.8,0.3,3.4,1,4.6,4.8
		C68.4,35.8,69.3,37.7,69.3,38.6"/>
	<path class="st1" d="M55.8,12.4c-1.7,0-2.8-0.8-2.8-1.3c0-0.3,0.1-0.4,0.3-0.4c0.6,0,1.7,0.8,2.1,0.8c0.1,0,0.1,0,0.1-0.1
		c0-0.4-0.4-1.1-0.4-1.5c0-0.1,0.1-0.1,0.3-0.1c0.7,0,1.7,0.3,2.2,0.3c0.1,0,0.3-0.1,0.3-0.1c0-0.6-1.5-1.5-1.5-2c0-0.3,2-0.7,2-1.3
		S55.7,6.5,55.7,6c0-0.3,0.6-1,0.6-1.3c0-0.1-0.1-0.1-0.3-0.1c-0.3,0-1.4,0.4-2,0.4c-0.3,0-0.6,0-0.6-0.4c0-0.6,1-1.1,2.5-1.1
		c2.4,0,3.9,1.7,3.9,4.5C59.6,11.5,57.1,12.4,55.8,12.4z M50.9,7.7c0-0.3-1-0.8-1-1.1c0,0,0-0.1,0.1-0.1c0.3,0,0.7,0.1,1.1,0.1
		c0.3,0,0.4-1.4,0.6-1.4c0.1,0,0.4,1.3,0.7,1.3c0.3,0,1-0.4,1.1-0.4c0,0,0.1,0,0.1,0.1s-0.6,0.8-0.6,1c0,0.3,1.4,0.6,1.4,0.7
		c0,0.3-1.4,0.3-1.4,0.4c0,0.1,0.6,0.8,0.6,1.1c0,0,0,0.1-0.1,0.1s-1-0.3-1.1-0.3c-0.3,0-0.7,1-1,1c-0.1,0-0.1-0.1-0.1-0.3V9
		c0-0.1,0-0.1-0.1-0.1c-0.3,0-0.8,0-1,0c-0.1,0-0.1,0-0.1-0.1C49.9,8.6,50.9,7.9,50.9,7.7z M50.2,11.8c0.4,0,0.4,1,0.6,1.5
		c0,0.3,0.1,0.3,0.3,0.3c0.3,0,0.7-1.1,1.1-1.1s1.7,1.3,3.8,1.3c3,0,5.8-2.1,5.8-5.8s-2.5-5.8-6-5.8c-1.7,0-2.8,0.8-3.5,0.8
		c-0.4,0-1-1-1.3-1c-0.1,0-0.3,0.3-0.3,0.7c0,0.3,0,1.1-0.3,1.1c-0.6,0-3-1.7-3-1.1s1.5,2.2,1.5,2.8s-1.5,0.8-1.5,1.1
		c0,0.6,1.5,0.7,1.5,1.4c0,0.7-1.7,1.3-1.7,1.8c0,0.4,1.7,0.1,1.7,0.7c0,0.6-1.3,2.2-1.3,2.8c0,0.1,0,0.1,0.1,0.1
		C48.5,13.3,49.9,11.8,50.2,11.8"/>
	<path class="st1" d="M38.9,55.4c0,0.3-0.1,0.4-0.3,0.7c-0.3-0.6-1-0.7-1.4-0.7c-2.5,0-1.5,3.7-4.4,3.7c-1.1,0-1.3-0.1-1.7-0.1
		c-0.1,0-0.3,0.1-0.3,0.3c0,0.7,1,2.2,3.5,2.2s5.1-1.5,5.1-3.5c0-0.3-0.1-0.7-0.3-1c0.1-0.1,0.3-0.3,0.6-0.3c0.4,0,0.6,0.4,1,0.4
		c0.4,0,0.7-0.3,0.7-0.7c0-0.3-0.1-0.6-0.4-0.7c0.1-0.1,0.3-0.4,0.3-0.7c0-0.4-0.3-0.8-0.8-0.8c-0.3,0-0.4,0.1-0.6,0.3
		c0-0.4-0.3-0.8-0.7-0.8s-0.7,0.3-0.7,0.7C38.7,54.5,38.9,54.9,38.9,55.4"/>
	<path class="st1" d="M25.3,50.7c2,0.6,3,1.5,3.2,2.8c0.1,1.3,0.4,2.2,1,2.7c0.6,0.7,1.8,1.3,3,1.3c0.8,0,1.5-0.3,1.5-1.1
		s-1.3-3-3-3c-0.1,0-0.4,0-0.7,0c-0.3,0-0.6,0-0.7-0.3c-0.4-0.3-0.6-2.2-1.3-3.4c-0.8-1.3-1.7-1.5-3-1.5c-0.8,0-1.8,0.4-1.8,1.1
		S23.8,50.3,25.3,50.7z M32.3,56.2c-0.7,0-1.8-0.8-1.8-1.3c0-0.4,0.3-0.6,0.6-0.6c0.6,0,1.7,0.7,1.7,1.4
		C32.8,56.1,32.6,56.2,32.3,56.2"/>
	<path class="st1" d="M30.1,36.9c0-1.5,3.8-2.4,3.8-4.4c0-0.3-0.1-0.8-0.3-1.3c1.3,0.7,2.2,2,2.2,3c0,1.7-1.8,2.5-1.8,3.5
		c0,1.3,2,1.4,2,3c0,1.3-1.8,2.7-1.8,4.4c0,1.3,0.8,2.2,2.2,2.5c-0.4,0.1-0.8,0.1-1.3,0.1c-2.5,0-5.1-2.1-5.1-4.5
		c0-1.3,0.6-2.2,1.3-3.1c0.7,0.6,1.4,1,1.8,1s0.6-0.1,0.6-0.6C33.6,39.8,30.1,38.9,30.1,36.9z M38,49.5c-0.8,0.4-1.1,0.3-1.1,1.1
		c0,0.3-0.1,0.7-0.1,1s0,0.4,0.4,0.4c0.8,0,2.2-1.5,2.2-2.8c0-0.3-0.1-0.6-0.4-0.6C38.8,48.8,38.5,49.2,38,49.5z M37.8,47.6
		c0-1.1-2.2-1.1-2.2-2.8c0-0.4,0.3-1.1,0.8-2c0.3,1.3,0.7,2,1.8,2.4c2.2,0.8,2.5,2.1,2.5,3.4c0,2.2-1.5,5.1-5.6,5.1
		c-3.2,0-5.5-2.8-5.5-5.3c0-0.7,0.1-1.4,0.6-1.4s0.6,0.3,0.8,0.6c1.1,1.1,2.4,1.4,4.1,1.4C36.7,49,37.8,48.3,37.8,47.6"/>
	<path class="st1" d="M20.2,48.2c0,0.6-0.3,1-0.8,1c-0.6,0-1-0.3-1-0.8c0-0.6,0.3-1,0.8-1C19.7,47.3,20.2,47.6,20.2,48.2z
		 M15.6,49.2c0.1,0.8,0.8,1.5,1.8,1.4c0.3,0,0.6-0.1,0.8-0.3c0.1,0.8,0.8,1.3,1.8,1.1c1-0.1,1.5-0.8,1.4-1.8c0-0.3-0.1-0.4-0.1-0.6
		c0,0,0.1,0,0.3,0c0.8-0.1,1.5-0.8,1.4-1.8c-0.1-0.8-0.8-1.5-1.7-1.4c-0.3,0-0.6,0.1-0.8,0.3c-0.3-0.7-1-1.4-1.8-1.3
		s-1.4,0.8-1.4,1.8c0,0.1,0,0.3,0.1,0.6c0,0-0.1,0-0.3,0C16.3,47.5,15.5,48.2,15.6,49.2"/>
</g>
<line class="st2" x1="94.5" y1="1.7" x2="94.5" y2="91.2"/>
<g>
	<path class="st3" d="M125.1,22.5h-3V9.2l-4.6,9.7h-2.2l-4.7-9.7v13.3h-3V2.6h3l5.8,12.4l5.7-12.4h3V22.5z"/>
	<path class="st3" d="M144.6,22.5h-3.2l-1.4-4h-7.8l-1.4,4h-3.2l7.3-19.9h2.4L144.6,22.5z M139.2,15.9l-3-8.8l-3.1,8.8H139.2z"/>
	<path class="st3" d="M162.1,22.5h-2.8l-9.2-14v14h-3V2.6h2.8l9.2,13.9V2.6h3V22.5z"/>
	<path class="st3" d="M181,15.8c0,1.3-0.3,2.5-0.9,3.6s-1.5,1.9-2.6,2.4c-1.1,0.6-2.3,0.9-3.7,0.9c-1.3,0-2.6-0.3-3.6-0.9
		c-1.1-0.6-1.9-1.4-2.5-2.4c-0.6-1-0.9-2.2-0.9-3.6V2.6h3v13c0,0.9,0.2,1.6,0.5,2.3c0.3,0.6,0.8,1.1,1.4,1.5
		c0.6,0.3,1.3,0.5,2.2,0.5c0.8,0,1.6-0.2,2.2-0.5c0.6-0.3,1.1-0.8,1.4-1.5c0.3-0.6,0.5-1.4,0.5-2.3v-13h3V15.8z"/>
	<path class="st3" d="M198.2,5.3h-9.7v6h8.3v2.7h-8.3v8.4h-3V2.6h12.7V5.3z"/>
	<path class="st3" d="M216.2,22.5H213l-1.4-4h-7.8l-1.4,4h-3.2l7.3-19.9h2.4L216.2,22.5z M210.8,15.9l-3-8.8l-3.1,8.8H210.8z"/>
	<path class="st3" d="M232.3,16.5c-0.2,1-0.5,1.9-0.9,2.6c-0.4,0.8-0.9,1.4-1.6,1.9c-0.6,0.5-1.3,0.9-2.1,1.2
		c-0.8,0.3-1.6,0.4-2.5,0.4c-0.7,0-1.3-0.1-2-0.2c-0.6-0.2-1.2-0.4-1.8-0.7c-0.6-0.3-1.1-0.7-1.5-1.1c-0.6-0.6-1.1-1.3-1.3-2
		c-0.3-0.7-0.4-1.5-0.5-2.3c-0.1-0.8-0.1-2-0.1-3.6c0-1.2,0-2.2,0-2.9s0.1-1.4,0.2-1.9c0.1-0.6,0.3-1.1,0.6-1.7s0.6-1,1.1-1.5
		c0.7-0.7,1.5-1.2,2.4-1.6c0.9-0.4,1.8-0.5,2.9-0.5c1.9,0,3.4,0.5,4.7,1.6s2.1,2.6,2.4,4.5h-3.1c-0.2-1-0.7-1.9-1.4-2.5
		c-0.7-0.6-1.6-0.9-2.6-0.9c-0.6,0-1.1,0.1-1.6,0.3c-0.5,0.2-0.9,0.5-1.3,0.9c-0.3,0.3-0.5,0.6-0.6,0.9c-0.1,0.3-0.3,0.7-0.4,1.2
		c-0.1,0.5-0.2,1-0.2,1.6c0,0.6,0,1.4,0,2.5c0,1.1,0,1.9,0,2.5c0,0.6,0.1,1.1,0.2,1.6s0.2,0.9,0.4,1.2c0.1,0.3,0.3,0.6,0.6,0.9
		c0.4,0.4,0.8,0.7,1.3,0.9c0.5,0.2,1.1,0.3,1.6,0.3c0.7,0,1.3-0.1,1.9-0.4c0.5-0.3,1-0.7,1.4-1.2s0.6-1.1,0.8-1.8H232.3z"/>
	<path class="st3" d="M248.2,5.3h-5.5v17.1h-3V5.3h-5.5V2.6h13.9V5.3z"/>
	<path class="st3" d="M265.3,15.8c0,1.3-0.3,2.5-0.9,3.6s-1.5,1.9-2.6,2.4c-1.1,0.6-2.3,0.9-3.7,0.9c-1.3,0-2.6-0.3-3.6-0.9
		c-1.1-0.6-1.9-1.4-2.5-2.4c-0.6-1-0.9-2.2-0.9-3.6V2.6h3v13c0,0.9,0.2,1.6,0.5,2.3c0.3,0.6,0.8,1.1,1.4,1.5
		c0.6,0.3,1.3,0.5,2.2,0.5s1.6-0.2,2.2-0.5c0.6-0.3,1.1-0.8,1.4-1.5c0.3-0.6,0.5-1.4,0.5-2.3v-13h3V15.8z"/>
	<path class="st3" d="M284.3,22.5h-3.5l-4.2-8.3h-3.8v8.3h-3V2.6h7.7c1.2,0,2.3,0.2,3.2,0.7c0.9,0.5,1.7,1.2,2.2,2.1
		c0.5,0.9,0.8,1.9,0.8,3c0,1.4-0.4,2.5-1.1,3.4c-0.7,0.9-1.7,1.5-2.9,1.9L284.3,22.5z M280.7,8.4c0-1-0.3-1.7-0.9-2.3
		c-0.6-0.6-1.4-0.8-2.5-0.8h-4.5v6.2h4.5c1,0,1.8-0.3,2.5-0.8S280.7,9.4,280.7,8.4z"/>
	<path class="st3" d="M290.9,22.5h-3V2.6h3V22.5z"/>
	<path class="st3" d="M310.7,22.5H308l-9.2-14v14h-3V2.6h2.8l9.2,13.9V2.6h3V22.5z"/>
	<path class="st3" d="M329.3,14.8c0,1.3-0.1,2.4-0.4,3.2c-0.3,0.9-0.7,1.7-1.4,2.3c-1.4,1.5-3.2,2.3-5.5,2.3c-0.7,0-1.3-0.1-2-0.2
		c-0.6-0.2-1.2-0.4-1.8-0.7c-0.6-0.3-1.1-0.7-1.5-1.1c-0.6-0.6-1.1-1.3-1.3-2c-0.3-0.7-0.4-1.5-0.5-2.3s-0.1-2-0.1-3.6
		c0-1.2,0-2.2,0-2.9c0-0.7,0.1-1.4,0.2-1.9c0.1-0.6,0.3-1.1,0.6-1.7s0.6-1,1.1-1.5c1.4-1.4,3.1-2.1,5.2-2.1c1.4,0,2.5,0.3,3.6,0.8
		s1.8,1.3,2.4,2.2c0.6,0.9,1,2,1.2,3.1h-3c-0.2-0.7-0.4-1.3-0.8-1.8c-0.4-0.5-0.8-0.9-1.4-1.2s-1.2-0.4-2-0.4
		c-0.6,0-1.1,0.1-1.6,0.3s-1,0.5-1.3,0.9c-0.5,0.5-0.8,1.2-1,2s-0.2,2.2-0.2,4.2c0,1.1,0,1.9,0,2.5c0,0.6,0.1,1.1,0.2,1.6
		c0.1,0.5,0.2,0.9,0.4,1.2c0.1,0.3,0.3,0.6,0.6,0.9c0.4,0.4,0.8,0.7,1.3,0.9s1.1,0.3,1.6,0.3c1.3,0,2.4-0.5,3.2-1.4
		c0.7-0.8,1-1.8,1-3.1v-1.1h-4.2v-2.6h7.2V14.8z"/>
	<path class="st3" d="M120.3,55.9h-12.7V36.1h12.7v2.7h-9.7v5.8h8.3v2.7h-8.3v6h9.7V55.9z"/>
	<path class="st3" d="M137.4,55.9h-3.5l-4.3-7.6l-4.3,7.6h-3.5l6.1-10.2l-5.7-9.7h3.5l3.9,7.1l3.9-7.1h3.5l-5.7,9.7L137.4,55.9z"/>
	<path class="st3" d="M152.7,55.9H140V36.1h12.7v2.7H143v5.8h8.3v2.7H143v6h9.7V55.9z"/>
	<path class="st3" d="M170,50c-0.2,1-0.5,1.9-0.9,2.6c-0.4,0.8-0.9,1.4-1.6,1.9c-0.6,0.5-1.3,0.9-2.1,1.2c-0.8,0.3-1.6,0.4-2.5,0.4
		c-0.7,0-1.3-0.1-2-0.2c-0.6-0.2-1.2-0.4-1.8-0.7c-0.6-0.3-1.1-0.7-1.5-1.1c-0.6-0.6-1.1-1.3-1.3-2c-0.3-0.7-0.4-1.5-0.5-2.3
		c-0.1-0.8-0.1-2-0.1-3.6c0-1.2,0-2.2,0-2.9s0.1-1.4,0.2-1.9c0.1-0.6,0.3-1.1,0.6-1.7s0.6-1,1.1-1.5c0.7-0.7,1.5-1.2,2.4-1.6
		c0.9-0.4,1.8-0.5,2.9-0.5c1.9,0,3.4,0.5,4.7,1.6s2.1,2.6,2.4,4.5H167c-0.2-1-0.7-1.9-1.4-2.5c-0.7-0.6-1.6-0.9-2.6-0.9
		c-0.6,0-1.1,0.1-1.6,0.3c-0.5,0.2-0.9,0.5-1.3,0.9c-0.3,0.3-0.5,0.6-0.6,0.9c-0.1,0.3-0.3,0.7-0.4,1.2c-0.1,0.5-0.2,1-0.2,1.6
		c0,0.6,0,1.4,0,2.5c0,1.1,0,1.9,0,2.5c0,0.6,0.1,1.1,0.2,1.6s0.2,0.9,0.4,1.2c0.1,0.3,0.3,0.6,0.6,0.9c0.4,0.4,0.8,0.7,1.3,0.9
		c0.5,0.2,1.1,0.3,1.6,0.3c0.7,0,1.3-0.1,1.9-0.4c0.5-0.3,1-0.7,1.4-1.2s0.6-1.1,0.8-1.8H170z"/>
	<path class="st3" d="M187.7,49.2c0,1.3-0.3,2.5-0.9,3.6s-1.5,1.9-2.6,2.4c-1.1,0.6-2.3,0.9-3.7,0.9c-1.3,0-2.6-0.3-3.6-0.9
		c-1.1-0.6-1.9-1.4-2.5-2.4c-0.6-1-0.9-2.2-0.9-3.6V36.1h3v13c0,0.9,0.2,1.6,0.5,2.3c0.3,0.6,0.8,1.1,1.4,1.5
		c0.6,0.3,1.3,0.5,2.2,0.5c0.8,0,1.6-0.2,2.2-0.5c0.6-0.3,1.1-0.8,1.4-1.5c0.3-0.6,0.5-1.4,0.5-2.3v-13h3V49.2z"/>
	<path class="st3" d="M204.5,38.8H199v17.1h-3V38.8h-5.5v-2.7h13.9V38.8z"/>
	<path class="st3" d="M210.7,55.9h-3V36.1h3V55.9z"/>
	<path class="st3" d="M229.1,46c0,1.6,0,2.8-0.1,3.6c-0.1,0.8-0.2,1.6-0.5,2.3c-0.3,0.7-0.7,1.4-1.3,2c-1.4,1.4-3.2,2.1-5.2,2.1
		s-3.8-0.7-5.2-2.1c-0.6-0.6-1.1-1.3-1.3-2c-0.3-0.7-0.4-1.5-0.5-2.3c-0.1-0.8-0.1-2-0.1-3.6c0-1.2,0-2.2,0-2.9s0.1-1.4,0.2-1.9
		c0.1-0.6,0.3-1.1,0.6-1.7s0.6-1,1.1-1.5c1.4-1.4,3.1-2.1,5.2-2.1s3.8,0.7,5.2,2.1c0.6,0.6,1,1.3,1.3,2c0.3,0.7,0.4,1.5,0.5,2.3
		C229.1,43.2,229.1,44.4,229.1,46z M226.1,46c0-2-0.1-3.4-0.2-4.2s-0.5-1.5-0.9-2c-0.3-0.4-0.8-0.7-1.3-0.9
		c-0.5-0.2-1.1-0.3-1.6-0.3c-0.6,0-1.1,0.1-1.7,0.3c-0.5,0.2-1,0.5-1.3,0.9c-0.5,0.5-0.8,1.2-0.9,2s-0.2,2.2-0.2,4.2
		c0,1.1,0,1.9,0,2.5c0,0.6,0.1,1.2,0.2,1.7c0.1,0.5,0.2,0.8,0.3,1.1c0.1,0.3,0.3,0.6,0.6,0.9c0.4,0.4,0.8,0.7,1.3,0.9
		c0.5,0.2,1.1,0.3,1.6,0.3c1.2,0,2.2-0.4,3-1.2c0.3-0.4,0.6-0.8,0.7-1.2s0.3-1.1,0.3-1.8S226.1,47.3,226.1,46z"/>
	<path class="st3" d="M248.3,55.9h-2.8l-9.2-14v14h-3V36.1h2.8l9.2,13.9V36.1h3V55.9z"/>
	<path class="st3" d="M120,83.7c0,0.9-0.2,1.7-0.5,2.4c-0.3,0.7-0.8,1.4-1.5,1.9c-0.6,0.5-1.4,0.9-2.3,1.2s-1.8,0.4-2.9,0.4
		c-1.5,0-2.8-0.2-4-0.6c-1.1-0.4-2.1-1.1-3.1-2l2-2c0.4,0.5,0.9,0.8,1.5,1.1c0.5,0.3,1.1,0.5,1.7,0.6s1.2,0.2,1.9,0.2
		c1.3,0,2.3-0.3,3-0.8c0.7-0.5,1.1-1.3,1.1-2.2c0-0.9-0.3-1.6-0.8-2.1c-0.2-0.2-0.5-0.4-0.8-0.5c-0.3-0.1-0.8-0.2-1.3-0.3l-2.3-0.3
		c-1.6-0.2-2.9-0.8-3.8-1.6c-1-0.9-1.4-2.2-1.4-3.8c0-1.2,0.3-2.2,0.8-3c0.5-0.9,1.3-1.6,2.3-2c1-0.5,2.2-0.7,3.5-0.7
		c1.3,0,2.5,0.2,3.5,0.5c1,0.4,1.9,0.9,2.7,1.7l-1.9,1.9c-0.4-0.4-0.8-0.7-1.3-0.9c-0.5-0.2-0.9-0.4-1.4-0.5c-0.5-0.1-1-0.1-1.6-0.1
		c-0.8,0-1.4,0.1-1.9,0.4c-0.5,0.3-1,0.6-1.2,1.1s-0.4,1-0.4,1.6c0,0.8,0.3,1.4,0.7,1.8c0.2,0.2,0.6,0.4,1,0.6
		c0.4,0.2,0.8,0.3,1.3,0.3l2.3,0.3c0.9,0.1,1.7,0.3,2.2,0.6s1.1,0.5,1.5,0.9C119.5,80.6,120,82,120,83.7z"/>
	<path class="st3" d="M136.2,69.5l-5.9,11.7v8.2h-3v-8.2l-5.9-11.7h3.3l4.2,8.7l4.2-8.7H136.2z"/>
	<path class="st3" d="M151.1,83.7c0,0.9-0.2,1.7-0.5,2.4c-0.3,0.7-0.8,1.4-1.5,1.9c-0.6,0.5-1.4,0.9-2.3,1.2s-1.8,0.4-2.9,0.4
		c-1.5,0-2.8-0.2-4-0.6c-1.1-0.4-2.1-1.1-3.1-2l2-2c0.4,0.5,0.9,0.8,1.5,1.1c0.5,0.3,1.1,0.5,1.7,0.6s1.2,0.2,1.9,0.2
		c1.3,0,2.3-0.3,3-0.8c0.7-0.5,1.1-1.3,1.1-2.2c0-0.9-0.3-1.6-0.8-2.1c-0.2-0.2-0.5-0.4-0.8-0.5c-0.3-0.1-0.8-0.2-1.3-0.3l-2.3-0.3
		c-1.6-0.2-2.9-0.8-3.8-1.6c-1-0.9-1.4-2.2-1.4-3.8c0-1.2,0.3-2.2,0.8-3c0.5-0.9,1.3-1.6,2.3-2c1-0.5,2.2-0.7,3.5-0.7
		c1.3,0,2.5,0.2,3.5,0.5c1,0.4,1.9,0.9,2.7,1.7l-1.9,1.9c-0.4-0.4-0.8-0.7-1.3-0.9c-0.5-0.2-0.9-0.4-1.4-0.5c-0.5-0.1-1-0.1-1.6-0.1
		c-0.8,0-1.4,0.1-1.9,0.4c-0.5,0.3-1,0.6-1.2,1.1s-0.4,1-0.4,1.6c0,0.8,0.3,1.4,0.7,1.8c0.2,0.2,0.6,0.4,1,0.6
		c0.4,0.2,0.8,0.3,1.3,0.3l2.3,0.3c0.9,0.1,1.7,0.3,2.2,0.6s1.1,0.5,1.5,0.9C150.5,80.6,151.1,82,151.1,83.7z"/>
	<path class="st3" d="M167,72.3h-5.5v17.1h-3V72.3h-5.5v-2.7H167V72.3z"/>
	<path class="st3" d="M182.9,89.4h-12.7V69.5h12.7v2.7h-9.7V78h8.3v2.7h-8.3v6h9.7V89.4z"/>
	<path class="st3" d="M204.2,89.4h-3V76.1l-4.6,9.7h-2.2l-4.7-9.7v13.3h-3V69.5h3l5.8,12.4l5.7-12.4h3V89.4z"/>
</g>
</svg>
